<svg xmlns="http://www.w3.org/2000/svg" width="12" height="11" viewBox="0 0 12 11" fill="none">
  <path d="M0.859492 0.00429249C0.385951 -0.00476456 0.0204983 0.402918 0.0465088 0.875832C0.0723581 1.34581 0.477771 1.70172 0.948191 1.71765C5.90753 1.88565 7.25499 5.86596 7.6106 7.67948C7.70463 8.15898 8.13092 8.52883 8.61853 8.49714C9.08083 8.46709 9.41211 8.08605 9.32794 7.63048C8.94136 5.53815 7.30894 0.127643 0.859492 0.00429249Z" fill="currentColor"/>
  <path d="M7.77428 8.92732C7.4407 9.26082 7.44076 9.80163 7.77442 10.1351C8.10786 10.4683 8.64823 10.4682 8.98159 10.1349L11.3963 7.72072C11.7298 7.38739 11.7299 6.8469 11.3966 6.51341C11.0633 6.17981 10.5226 6.17968 10.189 6.51313L7.77428 8.92732Z" fill="currentColor"/>
  <path d="M7.77453 10.1426C8.10784 10.4759 8.64825 10.4759 8.98156 10.1426C9.31487 9.80927 9.31487 9.26887 8.98156 8.93556L6.56665 6.52066C6.23334 6.18735 5.69294 6.18735 5.35963 6.52066C5.02632 6.85397 5.02632 7.39437 5.35963 7.72768L7.77453 10.1426Z" fill="currentColor"/>
</svg>
