<svg width="24" height="24" viewBox="0 0 24 24" fill="none" xmlns="http://www.w3.org/2000/svg">
<g id="&#231;&#173;&#155;&#233;&#128;&#137; (2) 1">
<path id="Vector" d="M13 18C13 18.5933 13.1759 19.1734 13.5056 19.6667C13.8352 20.1601 14.3038 20.5446 14.8519 20.7716C15.4001 20.9987 16.0033 21.0581 16.5853 20.9424C17.1672 20.8266 17.7018 20.5409 18.1213 20.1213C18.5409 19.7018 18.8266 19.1672 18.9424 18.5853C19.0581 18.0033 18.9987 17.4001 18.7716 16.8519C18.5446 16.3038 18.1601 15.8352 17.6667 15.5056C17.1734 15.1759 16.5933 15 16 15C15.2044 15 14.4413 15.3161 13.8787 15.8787C13.3161 16.4413 13 17.2044 13 18ZM17.5 18C17.5 18.2967 17.412 18.5867 17.2472 18.8334C17.0824 19.08 16.8481 19.2723 16.574 19.3858C16.2999 19.4994 15.9983 19.5291 15.7074 19.4712C15.4164 19.4133 15.1491 19.2704 14.9393 19.0607C14.7296 18.8509 14.5867 18.5836 14.5288 18.2926C14.4709 18.0017 14.5006 17.7001 14.6142 17.426C14.7277 17.1519 14.92 16.9176 15.1666 16.7528C15.4133 16.588 15.7033 16.5 16 16.5C16.3978 16.5 16.7794 16.658 17.0607 16.9393C17.342 17.2206 17.5 17.6022 17.5 18ZM13 6C13 6.59334 13.1759 7.17336 13.5056 7.66671C13.8352 8.16006 14.3038 8.54458 14.8519 8.77164C15.4001 8.9987 16.0033 9.05811 16.5853 8.94236C17.1672 8.8266 17.7018 8.54088 18.1213 8.12132C18.5409 7.70176 18.8266 7.16721 18.9424 6.58527C19.0581 6.00333 18.9987 5.40013 18.7716 4.85195C18.5446 4.30377 18.1601 3.83524 17.6667 3.50559C17.1734 3.17595 16.5933 3 16 3C15.2044 3 14.4413 3.31607 13.8787 3.87868C13.3161 4.44129 13 5.20435 13 6ZM17.5 6C17.5 6.29667 17.412 6.58668 17.2472 6.83336C17.0824 7.08003 16.8481 7.27229 16.574 7.38582C16.2999 7.49935 15.9983 7.52906 15.7074 7.47118C15.4164 7.4133 15.1491 7.27044 14.9393 7.06066C14.7296 6.85088 14.5867 6.58361 14.5288 6.29264C14.4709 6.00166 14.5006 5.70006 14.6142 5.42597C14.7277 5.15189 14.92 4.91762 15.1666 4.7528C15.4133 4.58797 15.7033 4.5 16 4.5C16.3978 4.5 16.7794 4.65804 17.0607 4.93934C17.342 5.22064 17.5 5.60218 17.5 6Z" fill="currentColor"/>
<path id="Vector_2" d="M13.25 18.75H3.75C3.25 18.75 3 18.5 3 18C3 17.5 3.25 17.25 3.75 17.25H13.25C13.75 17.25 14 17.5 14 18C14 18.5 13.75 18.75 13.25 18.75Z" fill="currentColor"/>
<path id="Vector_3" d="M5.25 12.75H3.75C3.25 12.75 3 12.5 3 12C3 11.5 3.25 11.25 3.75 11.25H5.25C5.75 11.25 6 11.5 6 12C6 12.5 5.75 12.75 5.25 12.75Z" fill="currentColor"/>
<path id="Vector_4" d="M20.25 12.75H12.75C12.25 12.75 12 12.5 12 12C12 11.5 12.25 11.25 12.75 11.25H20.25C20.75 11.25 21 11.5 21 12C21 12.5 20.75 12.75 20.25 12.75Z" fill="currentColor"/>
<path id="Vector_5" d="M20.25 18.75H18.75C18.25 18.75 18 18.5 18 18C18 17.5 18.25 17.25 18.75 17.25H20.25C20.75 17.25 21 17.5 21 18C21 18.5 20.75 18.75 20.25 18.75Z" fill="currentColor"/>
<path id="Vector_6" d="M13.25 6.75H3.75C3.25 6.75 3 6.5 3 6C3 5.5 3.25 5.25 3.75 5.25H13.25C13.75 5.25 14 5.5 14 6C14 6.5 13.75 6.75 13.25 6.75Z" fill="currentColor"/>
<path id="Vector_7" d="M20.25 6.75H18.75C18.25 6.75 18 6.5 18 6C18 5.5 18.25 5.25 18.75 5.25H20.25C20.75 5.25 21 5.5 21 6C21 6.5 20.75 6.75 20.25 6.75Z" fill="currentColor"/>
<path id="Vector_8" d="M5 12C5 12.5933 5.17595 13.1734 5.50559 13.6667C5.83524 14.1601 6.30377 14.5446 6.85195 14.7716C7.40013 14.9987 8.00333 15.0581 8.58527 14.9424C9.16721 14.8266 9.70176 14.5409 10.1213 14.1213C10.5409 13.7018 10.8266 13.1672 10.9424 12.5853C11.0581 12.0033 10.9987 11.4001 10.7716 10.8519C10.5446 10.3038 10.1601 9.83524 9.66671 9.50559C9.17336 9.17595 8.59334 9 8 9C7.20435 9 6.44129 9.31607 5.87868 9.87868C5.31607 10.4413 5 11.2044 5 12ZM9.5 12C9.5 12.2967 9.41203 12.5867 9.2472 12.8334C9.08238 13.08 8.84811 13.2723 8.57403 13.3858C8.29994 13.4994 7.99834 13.5291 7.70737 13.4712C7.41639 13.4133 7.14912 13.2704 6.93934 13.0607C6.72956 12.8509 6.5867 12.5836 6.52882 12.2926C6.47094 12.0017 6.50065 11.7001 6.61418 11.426C6.72771 11.1519 6.91997 10.9176 7.16664 10.7528C7.41332 10.588 7.70333 10.5 8 10.5C8.39783 10.5 8.77936 10.658 9.06066 10.9393C9.34196 11.2206 9.5 11.6022 9.5 12Z" fill="currentColor"/>
</g>
</svg>
