<svg xmlns="http://www.w3.org/2000/svg" width="24" height="24" viewBox="0 0 24 24" fill="none">
  <path
    d="M18.9359 7.88405H18.6479C18.5279 6.32405 17.8559 4.87205 16.7279 3.74405C15.4679 2.49605 13.8119 1.80005 12.0599 1.80005C8.59194 1.80005 5.74794 4.48805 5.48394 7.87205H5.19594C3.34794 7.87205 1.83594 9.38405 1.83594 11.232V18.9C1.83594 20.748 3.34794 22.26 5.19594 22.26H18.9359C20.7839 22.26 22.2959 20.748 22.2959 18.9V11.244C22.2959 9.38405 20.7839 7.88405 18.9359 7.88405ZM12.0599 3.72005C13.3079 3.72005 14.4719 4.21205 15.3599 5.10005C16.1279 5.86805 16.5959 6.84005 16.7039 7.88405H7.40394C7.66794 5.54405 9.65994 3.72005 12.0599 3.72005ZM20.3759 18.9C20.3759 19.692 19.7279 20.34 18.9359 20.34H5.19594C4.40394 20.34 3.75594 19.692 3.75594 18.9V11.244C3.75594 10.452 4.40394 9.80405 5.19594 9.80405H18.9479C19.7399 9.80405 20.3879 10.452 20.3879 11.244V18.9H20.3759Z"
    fill="currentColor" />
  <path
    d="M12.0601 11.9036C11.5321 11.9036 11.1001 12.3356 11.1001 12.8636V16.5836C11.1001 17.1116 11.5321 17.5436 12.0601 17.5436C12.5881 17.5436 13.0201 17.1116 13.0201 16.5836V12.8636C13.0201 12.3356 12.5881 11.9036 12.0601 11.9036Z"
    fill="currentColor" />
</svg>
