<svg xmlns="http://www.w3.org/2000/svg" width="26" height="26" viewBox="0 0 26 26" fill="none">
  <path d="M0.8125 4.61719H25.1875V21.375H0.8125V4.61719Z" fill="white"/>
  <path d="M0.8125 4.61719H25.1875V5.72625H0.8125V4.61719ZM0.8125 6.85969H25.1875V7.96875H0.8125V6.85969ZM0.8125 9.09H25.1875V10.1991H0.8125V9.09ZM0.8125 11.3203H25.1875V12.4294H0.8125V11.3203ZM0.8125 13.5628H25.1875V14.6719H0.8125V13.5628ZM0.8125 15.7931H25.1875V16.9022H0.8125V15.7931ZM0.8125 18.0356H25.1875V19.1447H0.8125V18.0356ZM0.8125 20.2659H25.1875V21.375H0.8125V20.2659Z" fill="#D02F44"/>
  <path d="M0.8125 4.61719H11.4766V12.4294H0.8125V4.61719Z" fill="#46467F"/>
  <path d="M2.34813 6.18937L1.97031 6.48188L2.10437 6.00656L1.72656 5.70188H2.20188L2.36031 5.22656L2.51875 5.70188H2.99406L2.61625 6.00656L2.75031 6.48188L2.34813 6.18937ZM4.84656 6.18937L4.46875 6.48188L4.60281 6.00656L4.225 5.70188H4.70031L4.85875 5.22656L5.01719 5.70188H5.4925L5.11469 6.00656L5.24875 6.48188L4.84656 6.18937ZM7.35719 6.18937L6.97938 6.48188L7.11344 6.00656L6.73563 5.70188H7.21094L7.36938 5.22656L7.52781 5.70188H8.00313L7.62531 6.00656L7.75938 6.48188L7.35719 6.18937ZM9.85563 6.23813L9.47781 6.53062L9.61188 6.04313L9.23406 5.73844L9.70938 5.72625L9.86781 5.23875L10.0263 5.72625L10.5016 5.73844L10.1238 6.04313L10.2578 6.53062L9.85563 6.23813ZM3.32313 7.50562L2.94531 7.79813L3.07938 7.32281L2.70156 7.01813H3.17688L3.33531 6.54281L3.48156 7.01813H3.95688L3.57906 7.32281L3.71313 7.79813L3.32313 7.50562ZM6.13844 7.50562L5.76063 7.79813L5.89469 7.32281L5.51688 7.01813H5.99219L6.15063 6.54281L6.30906 7.01813H6.78438L6.40656 7.32281L6.54063 7.79813L6.13844 7.50562ZM8.94156 7.50562L8.56375 7.79813L8.69781 7.32281L8.32 7.01813H8.79531L8.95375 6.54281L9.11219 7.01813H9.5875L9.20969 7.32281L9.34375 7.79813L8.94156 7.50562ZM2.34813 8.82187L1.97031 9.11438L2.10437 8.63906L1.72656 8.33438H2.20188L2.36031 7.85906L2.51875 8.33438H2.99406L2.61625 8.63906L2.75031 9.11438L2.34813 8.82187ZM4.84656 8.82187L4.46875 9.10219L4.60281 8.62687L4.225 8.32219H4.70031L4.85875 7.84687L5.01719 8.32219H5.4925L5.11469 8.62687L5.24875 9.10219L4.84656 8.82187ZM7.35719 8.82187L6.97938 9.11438L7.11344 8.63906L6.73563 8.33438H7.21094L7.36938 7.85906L7.52781 8.33438H8.00313L7.62531 8.63906L7.75938 9.11438L7.35719 8.82187ZM9.85563 8.85844L9.47781 9.15094L9.61188 8.66344L9.23406 8.35875L9.70938 8.34656L9.86781 7.85906L10.0263 8.34656L10.5016 8.35875L10.1238 8.66344L10.2578 9.15094L9.85563 8.85844ZM2.34813 11.4422L1.97031 11.7347L2.10437 11.2594L1.72656 10.9547H2.20188L2.36031 10.4794L2.51875 10.9547H2.99406L2.61625 11.2594L2.75031 11.7347L2.34813 11.4422ZM4.84656 11.4422L4.46875 11.7347L4.60281 11.2594L4.225 10.9547H4.70031L4.85875 10.4794L5.01719 10.9547H5.4925L5.11469 11.2594L5.24875 11.7347L4.84656 11.4422ZM7.35719 11.4422L6.97938 11.7347L7.11344 11.2594L6.73563 10.9547H7.21094L7.36938 10.4794L7.52781 10.9547H8.00313L7.62531 11.2594L7.75938 11.7347L7.35719 11.4422ZM9.85563 11.4909L9.47781 11.7834L9.61188 11.2959L9.23406 10.9913L9.70938 10.9791L9.86781 10.4916L10.0263 10.9791L10.5016 10.9913L10.1116 11.2959L10.2456 11.7834L9.85563 11.4909ZM3.32313 10.1381L2.94531 10.4306L3.07938 9.95531L2.70156 9.65063H3.17688L3.33531 9.17531L3.48156 9.65063H3.95688L3.56687 9.95531L3.70094 10.4306L3.32313 10.1381ZM6.13844 10.1381L5.76063 10.4306L5.89469 9.95531L5.51688 9.65063H5.99219L6.15063 9.17531L6.30906 9.65063H6.78438L6.39438 9.95531L6.52844 10.4306L6.13844 10.1381ZM8.94156 10.1381L8.56375 10.4306L8.69781 9.95531L8.32 9.65063H8.79531L8.95375 9.17531L9.11219 9.65063H9.5875L9.1975 9.95531L9.33156 10.4306L8.94156 10.1381Z" fill="white"/>
</svg>