<svg xmlns="http://www.w3.org/2000/svg" width="15" height="15" viewBox="0 0 15 15" fill="none">
  <path d="M7.64568 0.441741L7.64568 0.441759C7.88221 0.445656 8.10774 0.542345 8.27364 0.710981M7.64568 0.441741L8.27364 0.710981M7.64568 0.441741H7.64356M7.64568 0.441741H7.64356M8.27364 0.710981C8.43953 0.879618 8.53251 1.10669 8.53251 1.34325C8.53251 1.5798 8.43953 1.80688 8.27364 1.97551C8.10774 2.14415 7.88221 2.24084 7.64568 2.24473M8.27364 0.710981L7.64568 2.24473M7.64356 0.441741C3.67339 0.441741 0.442718 3.67098 0.442718 7.64164C0.442718 11.6123 3.67254 14.8417 7.64356 14.8417C11.6137 14.8417 14.8436 11.6123 14.8427 7.64098L14.8427 7.63889C14.8388 7.40237 14.7421 7.17685 14.5734 7.01097C14.4048 6.84509 14.1777 6.75213 13.9411 6.75213C13.7046 6.75213 13.4775 6.84509 13.3088 7.01097C13.1402 7.17685 13.0435 7.40237 13.0396 7.63889H13.0395V7.64101C13.0395 10.6166 10.6186 13.0379 7.64356 13.0379C4.66844 13.0379 2.2461 10.6172 2.2461 7.64164C2.2461 4.66605 4.66763 2.24475 7.64356 2.24477L7.64568 2.24473M7.64356 0.441741L7.64568 2.24473" fill="#FF9F0A" stroke="#FF9F0A" stroke-width="0.257143"/>
</svg>
