<svg xmlns="http://www.w3.org/2000/svg" width="31" height="31" viewBox="0 0 31 31" fill="none">
  <path d="M26.7704 17.3973C27.662 15.3988 23.2542 9.81518 19.0432 7.48895C16.3889 5.68685 13.6231 5.93443 13.0629 6.72569C11.8336 8.46218 17.1335 9.93359 20.6781 11.6506C19.9161 11.9827 19.1981 12.5785 18.7759 13.3406C17.4544 11.8931 14.5541 10.6465 11.1509 11.6506C8.85748 12.3273 6.95151 13.9225 6.21486 16.3318C6.03587 16.252 5.83769 16.2076 5.62919 16.2076C4.83189 16.2076 4.18555 16.8562 4.18555 17.6562C4.18555 18.4562 4.83189 19.1047 5.62919 19.1047C5.77698 19.1047 6.23905 19.0052 6.23905 19.0052L13.6231 19.0589C10.67 23.7594 8.33631 24.4465 8.33631 25.2608C8.33631 26.0752 10.5693 25.8545 11.4077 25.551C15.4213 24.0979 19.7322 19.5692 20.4719 18.2655C23.5784 18.6544 26.189 18.7004 26.7704 17.3973Z" fill="url(#paint0_linear_27244_7884)"/>
  <path fill-rule="evenodd" clip-rule="evenodd" d="M20.6754 11.6485C20.6758 11.6487 20.6761 11.6488 20.6764 11.649C20.8407 11.584 20.8141 11.3405 20.769 11.1494C20.6653 10.7099 18.8763 8.93731 17.1963 8.14335C14.9072 7.06156 13.2215 7.11725 12.9723 7.61579C13.4388 8.57467 15.6005 9.47494 17.8581 10.4152C18.8214 10.8164 19.8021 11.2248 20.6762 11.6482C20.6759 11.6483 20.6757 11.6484 20.6754 11.6485Z" fill="url(#paint1_linear_27244_7884)"/>
  <path fill-rule="evenodd" clip-rule="evenodd" d="M17.7757 21.2994C17.3122 21.1215 16.7885 20.9584 16.1931 20.8104C16.827 19.6722 16.96 17.9872 16.3613 16.9219C15.5211 15.4268 14.4663 14.631 12.0153 14.631C10.6672 14.631 7.03766 15.0866 6.97322 18.1267C6.96643 18.4471 6.97311 18.7407 6.99638 19.0105L13.623 19.0587C12.7307 20.4791 11.8949 21.5331 11.1629 22.3348C12.0416 22.5607 12.767 22.7504 13.4329 22.9246C14.0663 23.0903 14.646 23.2419 15.2529 23.3973C16.1665 22.7291 17.0253 22.0007 17.7757 21.2994Z" fill="url(#paint2_linear_27244_7884)"/>
  <path d="M6.12738 18.7004C6.39813 21.0099 7.70622 21.9149 10.3792 22.1828C13.0521 22.4506 14.5853 22.2709 16.6266 22.4573C18.3314 22.6129 19.8537 23.4846 20.4184 23.1834C20.9266 22.9123 20.6423 21.9328 19.9622 21.3044C19.0807 20.4898 17.8607 19.9235 15.714 19.7225C16.1418 18.5472 16.0219 16.8993 15.3575 16.0027C14.3968 14.7063 12.6235 14.1202 10.3792 14.3763C8.03436 14.6438 5.78758 15.8021 6.12738 18.7004Z" fill="url(#paint3_linear_27244_7884)"/>
  <defs>
    <linearGradient id="paint0_linear_27244_7884" x1="10.8838" y1="15.6275" x2="26.5862" y2="20.0654" gradientUnits="userSpaceOnUse">
      <stop stop-color="#8697FF"/>
      <stop offset="1" stop-color="#ABB7FF"/>
    </linearGradient>
    <linearGradient id="paint1_linear_27244_7884" x1="23.9336" y1="15.326" x2="12.571" y2="3.97407" gradientUnits="userSpaceOnUse">
      <stop stop-color="#8697FF"/>
      <stop offset="1" stop-color="#5156D8" stop-opacity="0"/>
    </linearGradient>
    <linearGradient id="paint2_linear_27244_7884" x1="18.0908" y1="21.6959" x2="7.19281" y2="15.4507" gradientUnits="userSpaceOnUse">
      <stop stop-color="#465EED"/>
      <stop offset="1" stop-color="#8697FF" stop-opacity="0"/>
    </linearGradient>
    <linearGradient id="paint3_linear_27244_7884" x1="11.8218" y1="15.5121" x2="19.2053" y2="24.8621" gradientUnits="userSpaceOnUse">
      <stop stop-color="#8898FF"/>
      <stop offset="0.983895" stop-color="#6277F1"/>
    </linearGradient>
  </defs>
</svg>