<svg xmlns="http://www.w3.org/2000/svg" width="24" height="24" viewBox="0 0 24 24" fill="none">
  <path fill-rule="evenodd" clip-rule="evenodd" d="M0 5.99999C0 3.79086 1.79086 2 4 2H20C22.2091 2 24 3.79086 24 6V7H0V5.99999ZM0 9.4H24V18.4C24 20.6091 22.2091 22.4 20 22.4H4C1.79086 22.4 0 20.6091 0 18.4V9.4ZM3.40117 13.1992C2.73843 13.1992 2.20117 13.7365 2.20117 14.3992C2.20117 15.062 2.73843 15.5992 3.40117 15.5992H8.20117C8.86391 15.5992 9.40117 15.062 9.40117 14.3992C9.40117 13.7365 8.86391 13.1992 8.20117 13.1992H3.40117Z" fill="#7084FF"/>
</svg>