<svg xmlns="http://www.w3.org/2000/svg" width="70" height="116" viewBox="0 0 70 116" fill="none">
  <g opacity="0.4" clip-path="url(#clip0_27244_7911)">
    <path fill-rule="evenodd" clip-rule="evenodd"
      d="M96.3287 38.5815C85.593 17.406 59.73 8.94484 38.5544 19.6805C17.3864 30.4125 8.91773 56.2793 19.6534 77.4548C30.3891 98.6304 56.2522 107.092 77.4277 96.3558C98.6032 85.6201 107.064 59.7571 96.3287 38.5815ZM58.3439 47.1657C69.4368 42.163 78.7182 40.1964 80.0469 42.8172C81.3756 45.4379 74.3073 51.7698 63.7192 57.7497L74.231 78.4834L64.4968 83.4185L53.9813 62.6773C43.0716 67.54 34.0074 69.4152 32.6977 66.8319C31.3842 64.2412 38.258 58.0455 48.6286 52.1194L45.827 46.5934L30.1026 54.5655L25.623 45.7299L66.7986 24.8545L71.2781 33.6901L55.5537 41.6621L58.3439 47.1657ZM34.8628 65.2543C35.8536 67.2086 47.1265 64.1947 58.2609 58.5498C69.2755 52.9655 78.4702 45.5555 77.4984 43.6386C76.4317 41.5345 68.5613 43.388 58.6895 47.8658L61.9846 54.3653L52.2504 59.3004L48.9629 52.8159C39.756 58.0484 33.8112 63.1801 34.8628 65.2543Z"
      fill="#7084FF" fill-opacity="0.12" />
  </g>
  <defs>
    <clipPath id="clip0_27244_7911">
      <rect width="86" height="86" fill="white" transform="translate(0.203125 39.0898) rotate(-26.8844)" />
    </clipPath>
  </defs>
</svg>
