<svg xmlns="http://www.w3.org/2000/svg" width="59" height="87" viewBox="0 0 59 87" fill="none">
  <path opacity="0.4"
    d="M52.2542 20.2325C65.1036 40.5287 59.0651 67.4053 38.7689 80.2546C18.4728 93.1039 -8.40379 87.0655 -21.2531 66.7693C-34.1024 46.4731 -28.064 19.5966 -7.76789 6.7473C12.5282 -6.10196 39.4049 -0.0637304 52.2542 20.2325ZM20.3098 69.7955C9.47343 72.1449 -2.17677 67.6709 -8.44448 57.7707C-14.7122 47.8706 -13.7691 35.432 -7.01397 26.6362C-6.59115 26.0907 -6.57461 25.1486 -6.94398 24.5652L-8.29944 22.4242C-8.84976 21.5549 -9.83676 21.4933 -10.499 22.2803C-19.3655 32.8786 -20.8236 48.3891 -13.0379 60.6869C-5.25224 72.9849 9.39129 78.3015 22.7601 74.8148C23.7547 74.5528 24.1212 73.6343 23.5709 72.765L22.2154 70.624C21.8424 70.0348 20.9875 69.6526 20.3098 69.7955ZM6.30058 11.6528C5.30597 11.9148 4.93946 12.8333 5.48978 13.7026L6.84524 15.8436C7.21456 16.4269 8.07318 16.815 8.74716 16.6662C19.5834 14.3169 31.2337 18.7909 37.5013 28.691C43.769 38.5912 42.826 51.0297 36.0709 59.8255C35.6103 60.4276 35.5983 61.2606 36.0009 61.8966L37.3564 64.0376C37.9067 64.9068 38.8937 64.9684 39.5559 64.1815C48.4261 53.589 49.8841 38.0786 42.0984 25.7806C34.3128 13.4828 19.6634 8.16975 6.30058 11.6528ZM28.0611 42.3191C24.6632 36.9519 20.2512 37.2117 13.3923 40.3445C8.30847 42.6151 6.71351 42.0966 5.33586 39.9206C4.02839 37.8553 4.67656 35.3938 7.7218 33.4659C10.4754 31.7226 12.6658 31.6843 14.7191 33.4817C15.1788 33.8852 15.8438 33.9545 16.3572 33.6295L18.7725 32.1005C19.4433 31.6757 19.5768 30.7249 19.0195 30.1544C16.0393 27.1378 12.3527 26.5298 8.23668 28.2121L5.92092 24.5543C5.82554 24.4032 5.70127 24.2724 5.55525 24.1694C5.40923 24.0664 5.24433 23.9932 5.06998 23.954C4.89563 23.9148 4.71527 23.9105 4.53922 23.9411C4.36318 23.9717 4.1949 24.0368 4.04404 24.1326L1.74548 25.5878C1.59438 25.6832 1.46358 25.8075 1.36057 25.9535C1.25757 26.0995 1.18439 26.2644 1.14522 26.4387C1.10604 26.6131 1.10165 26.7935 1.1323 26.9695C1.16295 27.1456 1.22802 27.3138 1.3238 27.4647L3.57677 31.0234C-0.569549 34.5555 -1.59295 39.4447 0.87052 43.3359C4.05793 48.3706 8.33098 48.3949 15.3008 45.1919C20.1093 43.1447 21.9407 43.301 23.5104 45.7804C25.08 48.2598 24.0193 51.2441 21.0556 53.1203C17.0477 55.6577 14.6117 54.7402 12.6908 52.7772C12.2343 52.3144 11.5223 52.2095 10.9739 52.5567L8.35444 54.215C7.6952 54.6323 7.55273 55.5562 8.07936 56.1298C11.1636 59.53 15.3962 60.7812 20.8397 58.2911L23.137 61.9198C23.2324 62.0709 23.3566 62.2017 23.5027 62.3047C23.6487 62.4077 23.8136 62.4809 23.9879 62.5201C24.1623 62.5592 24.3426 62.5636 24.5187 62.533C24.6947 62.5023 24.863 62.4372 25.0139 62.3415L27.3124 60.8863C27.4635 60.7909 27.5943 60.6666 27.6973 60.5206C27.8003 60.3746 27.8735 60.2097 27.9127 60.0353C27.9519 59.861 27.9563 59.6806 27.9256 59.5046C27.895 59.3285 27.8299 59.1603 27.7341 59.0094L25.4368 55.3807C29.7034 51.6254 30.6465 46.4028 28.0611 42.3191Z"
    fill="#7084FF" fill-opacity="0.12" />
</svg>
