<svg xmlns="http://www.w3.org/2000/svg" width="20" height="20" viewBox="0 0 20 20" fill="none">
<mask id="path-2-outside-1_28359_43354" maskUnits="userSpaceOnUse" x="0" y="1" width="20" height="18" fill="black">
<rect fill="white" y="1" width="20" height="18"/>
<path fill-rule="evenodd" clip-rule="evenodd" d="M2 6.01345C2 4.34917 3.34917 3 5.01345 3H14.5699C16.2342 3 17.5833 4.34917 17.5833 6.01345V6.24609H2V6.01345ZM2 7.80443H17.5833V13.2324C17.5833 14.8967 16.2342 16.2458 14.5699 16.2458H5.01345C3.34916 16.2458 2 14.8967 2 13.2324V7.80443ZM4.20788 10.2734C3.77756 10.2734 3.42871 10.6223 3.42871 11.0526C3.42871 11.4829 3.77756 11.8318 4.20788 11.8318H7.32454C7.75487 11.8318 8.10371 11.4829 8.10371 11.0526C8.10371 10.6223 7.75487 10.2734 7.32454 10.2734H4.20788Z"/>
</mask>
<path fill-rule="evenodd" clip-rule="evenodd" d="M2 6.01345C2 4.34917 3.34917 3 5.01345 3H14.5699C16.2342 3 17.5833 4.34917 17.5833 6.01345V6.24609H2V6.01345ZM2 7.80443H17.5833V13.2324C17.5833 14.8967 16.2342 16.2458 14.5699 16.2458H5.01345C3.34916 16.2458 2 14.8967 2 13.2324V7.80443ZM4.20788 10.2734C3.77756 10.2734 3.42871 10.6223 3.42871 11.0526C3.42871 11.4829 3.77756 11.8318 4.20788 11.8318H7.32454C7.75487 11.8318 8.10371 11.4829 8.10371 11.0526C8.10371 10.6223 7.75487 10.2734 7.32454 10.2734H4.20788Z" fill="#7084FF"/>
<path d="M17.5833 6.24609V8.24609H19.5833V6.24609H17.5833ZM2 6.24609H0V8.24609H2V6.24609ZM17.5833 7.80443H19.5833V5.80443H17.5833V7.80443ZM2 7.80443V5.80443H0V7.80443H2ZM5.01345 1C2.24459 1 0 3.2446 0 6.01345H4C4 5.45374 4.45374 5 5.01345 5V1ZM14.5699 1H5.01345V5H14.5699V1ZM19.5833 6.01345C19.5833 3.2446 17.3387 1 14.5699 1V5C15.1296 5 15.5833 5.45373 15.5833 6.01345H19.5833ZM19.5833 6.24609V6.01345H15.5833V6.24609H19.5833ZM2 8.24609H17.5833V4.24609H2V8.24609ZM0 6.01345V6.24609H4V6.01345H0ZM17.5833 5.80443H2V9.80443H17.5833V5.80443ZM19.5833 13.2324V7.80443H15.5833V13.2324H19.5833ZM14.5699 18.2458C17.3387 18.2458 19.5833 16.0012 19.5833 13.2324H15.5833C15.5833 13.7921 15.1296 14.2458 14.5699 14.2458V18.2458ZM5.01345 18.2458H14.5699V14.2458H5.01345V18.2458ZM0 13.2324C0 16.0012 2.24459 18.2458 5.01345 18.2458V14.2458C4.45374 14.2458 4 13.7921 4 13.2324H0ZM0 7.80443V13.2324H4V7.80443H0ZM5.42871 11.0526C5.42871 11.7269 4.88212 12.2734 4.20788 12.2734V8.27344C2.67299 8.27344 1.42871 9.51771 1.42871 11.0526H5.42871ZM4.20788 9.83177C4.88213 9.83177 5.42871 10.3784 5.42871 11.0526H1.42871C1.42871 12.5875 2.67299 13.8318 4.20788 13.8318V9.83177ZM7.32454 9.83177H4.20788V13.8318H7.32454V9.83177ZM6.10371 11.0526C6.10371 10.3784 6.6503 9.83177 7.32454 9.83177V13.8318C8.85944 13.8318 10.1037 12.5875 10.1037 11.0526H6.10371ZM7.32454 12.2734C6.6503 12.2734 6.10371 11.7269 6.10371 11.0526H10.1037C10.1037 9.51771 8.85944 8.27344 7.32454 8.27344V12.2734ZM4.20788 12.2734H7.32454V8.27344H4.20788V12.2734Z" fill="white" mask="url(#path-2-outside-1_28359_43354)"/>
</svg>
