<svg width="23" height="22" viewBox="0 0 23 22" fill="none" xmlns="http://www.w3.org/2000/svg">
  <g clip-path="url(#clip0_24758_32315)">
    <path
      d="M18.7371 15.0747L12.8094 4.80855C12.0844 3.5534 10.8994 3.5534 10.1746 4.80855L4.2469 15.0747C3.52205 16.3311 4.11505 17.356 5.56374 17.356H17.4202C18.8689 17.356 19.4613 16.331 18.7371 15.0747ZM10.6778 7.72145C10.8908 7.49115 11.1616 7.37598 11.4919 7.37598C11.8224 7.37598 12.0929 7.48994 12.3062 7.71685C12.518 7.94427 12.6239 8.22868 12.6239 8.57069C12.6239 8.86494 12.1817 11.0287 12.0342 12.6029H10.9691C10.8398 11.0287 10.36 8.86494 10.36 8.57069C10.36 8.23387 10.4661 7.95063 10.6778 7.72145ZM12.2913 15.2066C12.0672 15.4248 11.8006 15.5335 11.492 15.5335C11.1835 15.5335 10.9168 15.4248 10.6928 15.2066C10.4694 14.9889 10.3583 14.7252 10.3583 14.4155C10.3583 14.1074 10.4694 13.8409 10.6928 13.6175C10.9168 13.394 11.1835 13.2823 11.492 13.2823C11.8006 13.2823 12.0672 13.394 12.2913 13.6175C12.5145 13.8409 12.6258 14.1074 12.6258 14.4155C12.6258 14.7252 12.5145 14.9889 12.2913 15.2066Z"
      fill="#FF9F0A" />
  </g>
  <defs>
    <clipPath id="clip0_24758_32315">
      <rect width="15.1223" height="14.9761" fill="white" transform="translate(3.9375 2.75)" />
    </clipPath>
  </defs>
</svg>
